<?xml version="1.0"?>
<svg xmlns="http://www.w3.org/2000/svg" viewBox="0 0 64 64" width="512" height="512"><g id="copyright"><path d="M61.39,25.08,48,19.34V10a1.033,1.033,0,0,0-.29-.71l-7-7A1.033,1.033,0,0,0,40,2H5A3.009,3.009,0,0,0,2,5V59a3.009,3.009,0,0,0,3,3H45a3.009,3.009,0,0,0,3-3V56.51l5.21-3.71A21.063,21.063,0,0,0,62,35.71V26A1,1,0,0,0,61.39,25.08ZM41,5.41,44.59,9H41ZM46,59a1,1,0,0,1-1,1H5a1,1,0,0,1-1-1V5A1,1,0,0,1,5,4H39v6a1,1,0,0,0,1,1h6v8.34l-6.42,2.75-4.37-4.37A2.482,2.482,0,0,0,36,16c0-1.18-.98-1.95-1.76-2.57a3.91,3.91,0,0,1-.92-.87,3.617,3.617,0,0,1,.02-1.35c.11-1.03.24-2.19-.56-2.99s-1.97-.67-2.99-.56a3.562,3.562,0,0,1-1.34.02,3.726,3.726,0,0,1-.88-.92C26.95,5.97,26.18,5,25,5s-1.95.98-2.57,1.76a3.91,3.91,0,0,1-.87.92,3.617,3.617,0,0,1-1.35-.02c-1.03-.11-2.19-.24-2.99.56s-.67,1.96-.56,2.99a3.562,3.562,0,0,1,.02,1.34,3.726,3.726,0,0,1-.92.88C14.97,14.05,14,14.82,14,16a2.482,2.482,0,0,0,.79,1.72L8.73,23.78a1,1,0,0,0-.23,1.04.986.986,0,0,0,.83.66l5.57.62.62,5.57a.986.986,0,0,0,.66.83.96.96,0,0,0,.33.06,1.007,1.007,0,0,0,.71-.29l6.06-6.06a2.267,2.267,0,0,0,3.44,0L32,31.48v4.23A21.816,21.816,0,0,0,32.13,38H8v2H32.45c.15.68.32,1.34.52,2H8v2H33.72a21.844,21.844,0,0,0,.99,2H8v2H35.99a19.585,19.585,0,0,0,1.64,2H8v2H39.75c.34.27.69.54,1.04.8L46,56.51ZM17.22,23.78c.8.8,1.96.67,2.99.56a3.785,3.785,0,0,1,1.34-.02,1.384,1.384,0,0,1,.42.36l-4.69,4.7-.48-4.3a1,1,0,0,0-.88-.88l-4.3-.48,4.7-4.69a1.371,1.371,0,0,1,.36.41,3.617,3.617,0,0,1-.02,1.35C16.55,21.82,16.42,22.98,17.22,23.78Zm3.91-1.52a10.939,10.939,0,0,0-1.14.09,3.84,3.84,0,0,1-1.35.02,3.629,3.629,0,0,1,.01-1.36,4.688,4.688,0,0,0-.12-2.33A4.544,4.544,0,0,0,17,17c-.33-.26-1-.79-1-1s.67-.74,1-1a4.544,4.544,0,0,0,1.53-1.68,4.688,4.688,0,0,0,.12-2.33,3.84,3.84,0,0,1-.02-1.35,3.629,3.629,0,0,1,1.36.01,4.688,4.688,0,0,0,2.33-.12A4.544,4.544,0,0,0,24,8c.26-.33.79-1,1-1s.74.67,1,1a4.544,4.544,0,0,0,1.68,1.53,4.688,4.688,0,0,0,2.33.12,3.84,3.84,0,0,1,1.35-.02,3.629,3.629,0,0,1-.01,1.36,4.688,4.688,0,0,0,.12,2.33A4.544,4.544,0,0,0,33,15c.33.26,1,.79,1,1s-.67.74-1,1a4.544,4.544,0,0,0-1.53,1.68,4.688,4.688,0,0,0-.12,2.33,3.84,3.84,0,0,1,.02,1.35,3.854,3.854,0,0,1-1.36-.01,4.688,4.688,0,0,0-2.33.12A4.544,4.544,0,0,0,26,24c-.26.33-.79,1-1,1s-.74-.67-1-1a4.544,4.544,0,0,0-1.68-1.53A3.021,3.021,0,0,0,21.13,22.26Zm7.31,2.06a3.617,3.617,0,0,1,1.35.02c1.02.11,2.19.24,2.99-.56s.67-1.96.56-2.99a3.562,3.562,0,0,1-.02-1.34,1.384,1.384,0,0,1,.36-.42l3.92,3.91-4.99,2.14A1,1,0,0,0,32,26v2.66l-3.97-3.98A1.371,1.371,0,0,1,28.44,24.32ZM60,35.71a19.023,19.023,0,0,1-7.96,15.46L47,54.77l-5.04-3.6A19.023,19.023,0,0,1,34,35.71V26.66l13-5.57,13,5.57Z"/><path d="M46.629,24.071l-10,4A1,1,0,0,0,36,29v6.31a16.914,16.914,0,0,0,6.38,13.275l3.995,3.2a1,1,0,0,0,1.25,0l3.995-3.2A16.914,16.914,0,0,0,58,35.31V29a1,1,0,0,0-.629-.929l-10-4A1,1,0,0,0,46.629,24.071ZM56,29.677V35.31a14.922,14.922,0,0,1-5.63,11.712L47,49.72l-3.37-2.7A14.922,14.922,0,0,1,38,35.31V29.677l9-3.6Z"/><path d="M42.707,37.293l-1.414,1.414,3,3A1,1,0,0,0,45,42h.033a1,1,0,0,0,.72-.341l7-8-1.506-1.316-6.3,7.2Z"/><path d="M30,16a5,5,0,1,0-5,5A5.006,5.006,0,0,0,30,16Zm-8,0a3,3,0,1,1,3,3A3,3,0,0,1,22,16Z"/></g></svg>
