<svg id="light" enable-background="new 0 0 24 24" height="512" viewBox="0 0 24 24" width="512" xmlns="http://www.w3.org/2000/svg"><path d="m18 20c-1.379 0-2.5-1.122-2.5-2.5s1.121-2.5 2.5-2.5 2.5 1.122 2.5 2.5-1.121 2.5-2.5 2.5zm0-4c-.827 0-1.5.673-1.5 1.5s.673 1.5 1.5 1.5 1.5-.673 1.5-1.5-.673-1.5-1.5-1.5z"/><path d="m18.774 24h-1.549c-.51 0-.932-.388-.981-.903l-.123-1.273c-.291-.133-.568-.299-.829-.495l-1.121.521c-.471.216-1.014.038-1.267-.415l-.775-1.381c-.248-.442-.13-1.002.275-1.303l1-.74c-.019-.156-.033-.33-.033-.512s.015-.356.033-.512l-1-.74c-.405-.301-.523-.86-.274-1.303l.773-1.381c.254-.452.798-.633 1.267-.415l1.122.521c.261-.196.538-.362.829-.495l.123-1.274c.05-.512.472-.9.982-.9h1.549c.51 0 .932.388.981.903l.123 1.273c.291.134.568.299.829.495l1.121-.521c.472-.218 1.014-.037 1.267.415l.775 1.381c.248.442.13 1.002-.275 1.303l-1 .74c.019.156.033.33.033.512s-.015.356-.033.512l1 .74c.405.301.523.86.274 1.303l-.773 1.381c-.254.453-.799.631-1.267.415l-1.122-.521c-.261.196-.538.362-.829.495l-.123 1.274c-.05.512-.472.9-.982.9zm-3.411-3.755c.118 0 .234.042.327.122.326.282.688.499 1.075.644.179.067.304.23.322.42l.152 1.571 1.535-.002.138-1.57c.019-.19.144-.353.322-.42.387-.145.749-.362 1.075-.644.148-.128.358-.159.538-.075l1.403.652.747-1.378-1.239-.928c-.151-.112-.227-.3-.195-.486.037-.212.065-.427.065-.65s-.028-.438-.065-.65c-.031-.186.044-.374.195-.486l1.242-.92-.776-1.391-1.376.655c-.179.083-.39.053-.538-.076-.325-.282-.688-.498-1.075-.644-.179-.067-.304-.23-.322-.42l-.152-1.571-1.535.002-.138 1.57c-.019.19-.144.353-.322.42-.387.145-.749.362-1.075.644-.149.128-.359.157-.538.075l-1.403-.652-.747 1.378 1.239.928c.151.112.227.3.195.486-.037.212-.065.427-.065.65s.028.438.065.65c.031.186-.044.374-.195.486l-1.242.92.776 1.391 1.376-.655c.068-.031.14-.046.211-.046z"/><path d="m9.5 21h-7c-1.379 0-2.5-1.122-2.5-2.5v-16c0-1.378 1.121-2.5 2.5-2.5h11c1.379 0 2.5 1.122 2.5 2.5v6c0 .276-.224.5-.5.5s-.5-.224-.5-.5v-6c0-.827-.673-1.5-1.5-1.5h-11c-.827 0-1.5.673-1.5 1.5v16c0 .827.673 1.5 1.5 1.5h7c.276 0 .5.224.5.5s-.224.5-.5.5z"/><path d="m3.5 13c-.128 0-.256-.049-.354-.146-.195-.195-.195-.512 0-.707l2.5-2.5c.151-.152.385-.19.577-.094l1.678.839 3.245-3.245c.195-.195.512-.195.707 0s.195.512 0 .707l-3.5 3.5c-.152.153-.385.19-.577.094l-1.678-.839-2.245 2.245c-.097.097-.225.146-.353.146z"/><path d="m11.5 11c-.276 0-.5-.224-.5-.5v-2.5h-2.5c-.276 0-.5-.224-.5-.5s.224-.5.5-.5h3c.276 0 .5.224.5.5v3c0 .276-.224.5-.5.5z"/></svg>