<svg id="Capa_1" enable-background="new 0 0 512 512" height="512" viewBox="0 0 512 512" width="512" xmlns="http://www.w3.org/2000/svg"><g><path d="m38.523 111.5c4.143 0 7.5-3.358 7.5-7.5v-56.5c0-17.92 14.579-32.5 32.5-32.5h84.454c4.143 0 7.5-3.358 7.5-7.5s-3.357-7.5-7.5-7.5h-84.454c-26.191 0-47.5 21.309-47.5 47.5v56.5c0 4.142 3.357 7.5 7.5 7.5z"/><path d="m111.977 448h-33.454c-17.921 0-32.5-14.58-32.5-32.5v-276.5c0-4.142-3.357-7.5-7.5-7.5s-7.5 3.358-7.5 7.5v276.5c0 26.191 21.309 47.5 47.5 47.5h33.454c4.143 0 7.5-3.358 7.5-7.5s-3.357-7.5-7.5-7.5z"/><path d="m219.631 142.5h-123.7c-4.143 0-7.5 3.358-7.5 7.5s3.357 7.5 7.5 7.5h123.7c4.143 0 7.5-3.358 7.5-7.5s-3.357-7.5-7.5-7.5z"/><path d="m95.931 322.5c-4.143 0-7.5 3.358-7.5 7.5s3.357 7.5 7.5 7.5h123.7c4.143 0 7.5-3.358 7.5-7.5s-3.357-7.5-7.5-7.5z"/><path d="m317.931 202.5h-224c-4.143 0-7.5 3.358-7.5 7.5s3.357 7.5 7.5 7.5h224c4.143 0 7.5-3.358 7.5-7.5s-3.357-7.5-7.5-7.5z"/><path d="m325.431 270c0-4.142-3.357-7.5-7.5-7.5h-224c-4.143 0-7.5 3.358-7.5 7.5s3.357 7.5 7.5 7.5h224c4.143 0 7.5-3.358 7.5-7.5z"/><path d="m401.023 297.936v-146.389c0-10.002-3.891-19.409-10.955-26.488l-113.804-114.047c-7.085-7.101-16.513-11.012-26.544-11.012h-51.743c-4.143 0-7.5 3.358-7.5 7.5s3.357 7.5 7.5 7.5h51.743c1.686 0 3.338.203 4.944.562v96.475c0 19.08 15.496 34.603 34.543 34.603h96.262c.354 1.595.553 3.235.553 4.908v143.356c-4.6-.594-9.287-.903-14.046-.903-42.952 0-82.033 25.346-99.563 64.571-1.689 3.782.006 8.217 3.788 9.907 3.778 1.688 8.216-.005 9.907-3.787 15.12-33.832 48.825-55.692 85.869-55.692 6.866 0 13.559.747 20.01 2.151.013.003.025.006.038.008 42.231 9.211 73.951 46.888 73.951 91.841 0 51.832-42.168 94-94 94s-94-42.168-94-94c0-2.294.084-4.616.249-6.9.299-4.131-2.808-7.723-6.939-8.021-4.133-.289-7.724 2.808-8.021 6.939-.191 2.643-.288 5.329-.288 7.982 0 16.037 3.483 31.275 9.729 45h-125.729c-4.143 0-7.5 3.358-7.5 7.5s3.357 7.5 7.5 7.5h134.047c19.527 29.501 53.003 49 90.953 49 60.103 0 109-48.897 109-109 0-50.048-33.907-92.319-79.954-105.064zm-131.358-185.899v-86.403l105.78 106.006h-86.237c-10.777-.001-19.543-8.794-19.543-19.603z"/><path d="m320.841 431.638c0 6.011 2.34 11.662 6.588 15.91 8.371 8.726 23.449 8.725 31.82 0l12.728-12.728 12.728 12.728c8.371 8.726 23.449 8.725 31.82 0h-.001c8.727-8.372 8.726-23.449.001-31.82l-12.729-12.728 12.728-12.728c8.727-8.372 8.727-23.449.001-31.82-8.371-8.726-23.449-8.725-31.82 0l-12.728 12.728-12.728-12.728c-8.37-8.725-23.45-8.725-31.819 0-8.727 8.372-8.726 23.449-.001 31.82l12.729 12.728-12.728 12.728c-4.249 4.248-6.589 9.898-6.589 15.91zm17.196-5.304 18.031-18.031c2.929-2.929 2.929-7.678 0-10.606l-18.032-18.032c-2.906-2.788-2.907-7.818.001-10.606 2.924-2.924 7.682-2.924 10.605 0l18.031 18.031c2.93 2.929 7.678 2.929 10.607 0l18.031-18.031c2.924-2.924 7.681-2.924 10.606 0 2.907 2.789 2.907 7.818-.001 10.606l-18.031 18.031c-2.929 2.929-2.929 7.678 0 10.606l18.032 18.032c2.906 2.788 2.906 7.818 0 10.606h-.001c-2.924 2.924-7.682 2.924-10.605 0l-18.031-18.031c-2.93-2.929-7.677-2.929-10.607 0l-18.031 18.031c-2.924 2.924-7.681 2.924-10.606 0-2.907-2.788-2.907-7.817.001-10.606z"/></g></svg>